<svg width="221" height="40" viewBox="0 0 221 40" fill="none" xmlns="http://www.w3.org/2000/svg">
<path d="M11.1591 31.4261C9.02841 31.4261 7.18182 30.9574 5.61932 30.0199C4.05682 29.0824 2.8447 27.7708 1.98295 26.0852C1.13068 24.3996 0.704545 22.4299 0.704545 20.1761C0.704545 17.9223 1.13068 15.9479 1.98295 14.2528C2.8447 12.5578 4.05682 11.2415 5.61932 10.304C7.18182 9.36648 9.02841 8.89773 11.1591 8.89773C13.2898 8.89773 15.1364 9.36648 16.6989 10.304C18.2614 11.2415 19.4688 12.5578 20.321 14.2528C21.1828 15.9479 21.6136 17.9223 21.6136 20.1761C21.6136 22.4299 21.1828 24.3996 20.321 26.0852C19.4688 27.7708 18.2614 29.0824 16.6989 30.0199C15.1364 30.9574 13.2898 31.4261 11.1591 31.4261ZM11.1875 27.3068C12.3428 27.3068 13.3087 26.9896 14.0852 26.3551C14.8617 25.7112 15.4394 24.8494 15.8182 23.7699C16.2064 22.6903 16.4006 21.4877 16.4006 20.1619C16.4006 18.8267 16.2064 17.6193 15.8182 16.5398C15.4394 15.4508 14.8617 14.5843 14.0852 13.9403C13.3087 13.2964 12.3428 12.9744 11.1875 12.9744C10.0038 12.9744 9.01894 13.2964 8.23295 13.9403C7.45644 14.5843 6.87405 15.4508 6.4858 16.5398C6.10701 17.6193 5.91761 18.8267 5.91761 20.1619C5.91761 21.4877 6.10701 22.6903 6.4858 23.7699C6.87405 24.8494 7.45644 25.7112 8.23295 26.3551C9.01894 26.9896 10.0038 27.3068 11.1875 27.3068ZM108.986 31V9.18182H113.901V12.8892H114.156C114.611 11.6392 115.364 10.6638 116.415 9.96307C117.466 9.25284 118.721 8.89773 120.179 8.89773C121.656 8.89773 122.902 9.25758 123.915 9.97727C124.938 10.6875 125.657 11.6581 126.074 12.8892H126.301C126.784 11.6771 127.598 10.7112 128.744 9.99148C129.9 9.26231 131.268 8.89773 132.849 8.89773C134.857 8.89773 136.495 9.5322 137.764 10.8011C139.033 12.0701 139.668 13.9214 139.668 16.3551V31H134.511V17.1506C134.511 15.7964 134.152 14.8068 133.432 14.1818C132.712 13.5473 131.831 13.2301 130.79 13.2301C129.549 13.2301 128.579 13.6184 127.878 14.3949C127.187 15.1619 126.841 16.161 126.841 17.392V31H121.798V16.9375C121.798 15.8106 121.457 14.911 120.776 14.2386C120.103 13.5663 119.223 13.2301 118.134 13.2301C117.395 13.2301 116.723 13.4195 116.116 13.7983C115.51 14.1676 115.027 14.6932 114.668 15.375C114.308 16.0473 114.128 16.8333 114.128 17.733V31H108.986Z" fill="#8629FF"/>
<path d="M25.978 39.1818V9.18182H31.0348V12.7898H31.3331C31.5982 12.2595 31.9723 11.696 32.4553 11.0994C32.9382 10.4934 33.5916 9.97727 34.4155 9.55114C35.2393 9.11553 36.2905 8.89773 37.5689 8.89773C39.2545 8.89773 40.7744 9.3286 42.1286 10.1903C43.4922 11.0426 44.5717 12.3068 45.3672 13.983C46.1721 15.6496 46.5746 17.6951 46.5746 20.1193C46.5746 22.5152 46.1816 24.5511 45.3956 26.2273C44.6096 27.9034 43.5395 29.1818 42.1854 30.0625C40.8312 30.9432 39.2971 31.3835 37.5831 31.3835C36.3331 31.3835 35.2962 31.1752 34.4723 30.7585C33.6484 30.3419 32.9856 29.84 32.4837 29.2528C31.9912 28.6562 31.6077 28.0928 31.3331 27.5625H31.12V39.1818H25.978ZM31.0206 20.0909C31.0206 21.5019 31.2195 22.7377 31.6172 23.7983C32.0244 24.8589 32.6068 25.6875 33.3643 26.2841C34.1314 26.8712 35.0594 27.1648 36.1484 27.1648C37.2848 27.1648 38.2365 26.8617 39.0036 26.2557C39.7706 25.6402 40.3482 24.8021 40.7365 23.7415C41.1342 22.6714 41.3331 21.4545 41.3331 20.0909C41.3331 18.7367 41.139 17.5341 40.7507 16.483C40.3625 15.4318 39.7848 14.608 39.0178 14.0114C38.2507 13.4148 37.2943 13.1165 36.1484 13.1165C35.05 13.1165 34.1172 13.4053 33.3501 13.983C32.5831 14.5606 32.0007 15.3703 31.603 16.4119C31.2147 17.4536 31.0206 18.6799 31.0206 20.0909ZM60.6371 31.4261C58.4496 31.4261 56.5604 30.9716 54.9695 30.0625C53.388 29.1439 52.1712 27.8466 51.3189 26.1705C50.4666 24.4848 50.0405 22.5009 50.0405 20.2188C50.0405 17.9744 50.4666 16.0047 51.3189 14.3097C52.1806 12.6051 53.3833 11.2794 54.9268 10.3324C56.4704 9.37595 58.2839 8.89773 60.3672 8.89773C61.7119 8.89773 62.9808 9.11553 64.174 9.55114C65.3767 9.97727 66.4373 10.6402 67.3558 11.5398C68.2839 12.4394 69.013 13.5852 69.5433 14.9773C70.0736 16.3598 70.3388 18.0076 70.3388 19.9205V21.4972H52.4553V18.0312H65.4098C65.4003 17.0464 65.1873 16.1705 64.7706 15.4034C64.3539 14.6269 63.7715 14.0161 63.0234 13.571C62.2848 13.1259 61.4231 12.9034 60.4382 12.9034C59.3871 12.9034 58.4638 13.1591 57.6683 13.6705C56.8729 14.1723 56.2526 14.8352 55.8075 15.6591C55.3719 16.4735 55.1494 17.3684 55.1399 18.3438V21.3693C55.1399 22.6383 55.3719 23.7273 55.8359 24.6364C56.3 25.536 56.9486 26.2273 57.782 26.7102C58.6153 27.1837 59.5907 27.4205 60.7081 27.4205C61.4562 27.4205 62.1333 27.3163 62.7393 27.108C63.3454 26.8902 63.871 26.5729 64.3161 26.1562C64.7611 25.7396 65.0973 25.2235 65.3246 24.608L70.1257 25.1477C69.8227 26.4167 69.245 27.5246 68.3928 28.4716C67.55 29.4091 66.4704 30.1383 65.1541 30.6591C63.8378 31.1705 62.3321 31.4261 60.6371 31.4261ZM79.831 18.2159V31H74.6889V9.18182H79.6037V12.8892H79.8594C80.3613 11.6676 81.1615 10.697 82.2599 9.97727C83.3679 9.25758 84.7363 8.89773 86.3651 8.89773C87.8707 8.89773 89.1823 9.2197 90.2997 9.86364C91.4266 10.5076 92.2978 11.4403 92.9134 12.6619C93.5384 13.8835 93.8461 15.3655 93.8366 17.108V31H88.6946V17.9034C88.6946 16.4451 88.3158 15.304 87.5582 14.4801C86.8101 13.6562 85.7732 13.2443 84.4474 13.2443C83.5478 13.2443 82.7476 13.4432 82.0469 13.8409C81.3556 14.2292 80.8111 14.7926 80.4134 15.5312C80.0251 16.2699 79.831 17.1648 79.831 18.2159ZM158.79 21.8239V9.18182H163.933V31H158.947V27.1222H158.719C158.227 28.3437 157.417 29.3428 156.29 30.1193C155.173 30.8958 153.795 31.2841 152.157 31.2841C150.727 31.2841 149.463 30.9669 148.364 30.3324C147.275 29.6884 146.423 28.7557 145.808 27.5341C145.192 26.303 144.884 24.8163 144.884 23.0739V9.18182H150.026V22.2784C150.026 23.661 150.405 24.7595 151.163 25.5739C151.92 26.3883 152.915 26.7955 154.146 26.7955C154.903 26.7955 155.637 26.6108 156.347 26.2415C157.058 25.8722 157.64 25.3229 158.094 24.5938C158.558 23.8551 158.79 22.9318 158.79 21.8239ZM186.464 14.9489L181.777 15.4602C181.644 14.9867 181.412 14.5417 181.081 14.125C180.759 13.7083 180.323 13.3722 179.774 13.1165C179.225 12.8608 178.553 12.733 177.757 12.733C176.687 12.733 175.787 12.965 175.058 13.429C174.339 13.893 173.983 14.4943 173.993 15.233C173.983 15.8674 174.215 16.3835 174.689 16.7812C175.172 17.179 175.967 17.5057 177.075 17.7614L180.797 18.5568C182.861 19.0019 184.395 19.7074 185.399 20.6733C186.412 21.6392 186.924 22.9034 186.933 24.4659C186.924 25.839 186.521 27.0511 185.726 28.1023C184.94 29.1439 183.846 29.9583 182.445 30.5455C181.043 31.1326 179.433 31.4261 177.615 31.4261C174.945 31.4261 172.795 30.8674 171.166 29.75C169.537 28.6231 168.567 27.0559 168.254 25.0483L173.268 24.5653C173.496 25.5502 173.979 26.2936 174.717 26.7955C175.456 27.2973 176.417 27.5483 177.601 27.5483C178.822 27.5483 179.803 27.2973 180.541 26.7955C181.289 26.2936 181.663 25.6733 181.663 24.9347C181.663 24.3097 181.422 23.7936 180.939 23.3864C180.465 22.9792 179.727 22.6667 178.723 22.4489L175.001 21.6676C172.909 21.232 171.36 20.4981 170.357 19.4659C169.353 18.4242 168.856 17.108 168.865 15.517C168.856 14.1723 169.22 13.0076 169.959 12.0227C170.707 11.0284 171.744 10.2614 173.07 9.72159C174.405 9.17235 175.944 8.89773 177.686 8.89773C180.243 8.89773 182.255 9.44223 183.723 10.5312C185.2 11.6203 186.114 13.0928 186.464 14.9489ZM191.173 31V9.18182H196.315V31H191.173ZM193.759 6.08523C192.944 6.08523 192.243 5.81534 191.656 5.27557C191.069 4.72632 190.776 4.06818 190.776 3.30114C190.776 2.52462 191.069 1.86648 191.656 1.3267C192.243 0.777461 192.944 0.50284 193.759 0.50284C194.582 0.50284 195.283 0.777461 195.861 1.3267C196.448 1.86648 196.741 2.52462 196.741 3.30114C196.741 4.06818 196.448 4.72632 195.861 5.27557C195.283 5.81534 194.582 6.08523 193.759 6.08523ZM211.12 31.4261C208.942 31.4261 207.072 30.9479 205.509 29.9915C203.956 29.035 202.758 27.714 201.915 26.0284C201.082 24.3333 200.665 22.3826 200.665 20.1761C200.665 17.9602 201.092 16.0047 201.944 14.3097C202.796 12.6051 203.999 11.2794 205.552 10.3324C207.114 9.37595 208.961 8.89773 211.092 8.89773C212.862 8.89773 214.43 9.22443 215.793 9.87784C217.166 10.5218 218.26 11.4356 219.075 12.6193C219.889 13.7936 220.353 15.1667 220.467 16.7386H215.552C215.353 15.6875 214.879 14.8116 214.131 14.1108C213.393 13.4006 212.403 13.0455 211.163 13.0455C210.112 13.0455 209.188 13.3295 208.393 13.8977C207.597 14.4564 206.977 15.2614 206.532 16.3125C206.096 17.3636 205.879 18.6231 205.879 20.0909C205.879 21.5777 206.096 22.8561 206.532 23.9261C206.968 24.9867 207.578 25.8059 208.364 26.3835C209.16 26.9517 210.093 27.2358 211.163 27.2358C211.92 27.2358 212.597 27.0937 213.194 26.8097C213.8 26.5161 214.307 26.0947 214.714 25.5455C215.121 24.9962 215.4 24.3286 215.552 23.5426H220.467C220.344 25.0862 219.889 26.4545 219.103 27.6477C218.317 28.8314 217.247 29.7595 215.893 30.4318C214.539 31.0947 212.948 31.4261 211.12 31.4261Z" fill="#F8F9FA"/>
</svg>
